<svg width="166" height="181" viewBox="0 0 166 181" fill="none" xmlns="http://www.w3.org/2000/svg">
<path d="M37.292 74.1086C43.8567 50.8354 64.7253 33.4758 89.7414 33.4758C106.498 33.4758 118.911 40.1684 128.929 50.0596L149.098 34.4496C135.876 19.9431 117.49 10.3824 90.2369 10.3824C49.1829 10.3824 17.824 37.3032 10.7091 74.1086H0.154708C7.43642 31.4829 43.4256 0 90.2369 0C120.983 0 142.214 11.194 157.331 28.0779C158.092 28.929 158.839 29.7946 159.57 30.6739C161.051 32.4538 162.469 34.29 163.829 36.1768L127.653 64.1766C117.741 51.7873 106.343 43.8581 89.7414 43.8581C70.7146 43.8581 54.3581 56.4845 48.1685 74.1086H37.292Z" fill="#0078D4"/>
<path d="M10.5336 105.972C17.3611 143.836 49.3428 170.006 88.2547 170.006C105.884 170.006 119.205 166.218 129.832 160.225C137.574 155.859 144.197 150.147 150.144 143.354L130.435 129.315C126.582 133.234 122.343 136.797 117.486 139.672C109.575 144.356 100.547 146.912 89.7414 146.912C64.6584 146.912 43.7841 129.644 37.26 105.972H48.1107C54.2558 123.978 70.6551 136.53 89.7414 136.53C107.83 136.53 118.485 128.105 128.892 115.468L165.068 141.238C163.021 144.06 160.885 146.79 158.638 149.405C142.937 167.683 121.854 180.388 88.2547 180.388C43.7163 180.388 6.98334 149.767 0 105.972H10.5336Z" fill="#0078D4"/>
</svg>
